<svg xmlns="http://www.w3.org/2000/svg" viewBox="0 0 24 24" fill="none"><style>.i{stroke:#151515}.f{fill:#151515}.a{fill:#6300C6}@media (prefers-color-scheme:dark){.i{stroke:#f6f3ec}.f{fill:#f6f3ec}.a{fill:#B98AFF}}</style><path class="i" d="M6 3.5h12A3.5 3.5 0 0 1 21.5 7v7a3.5 3.5 0 0 1-3.5 3.5h-6.4l-4.3 3.2a.6.6 0 0 1-.96-.48V17.5H6A3.5 3.5 0 0 1 2.5 14V7A3.5 3.5 0 0 1 6 3.5Z" stroke-width="1.9" stroke-linejoin="round"/><rect class="f" x="7" y="11" width="2.4" height="3" rx=".6"/><rect class="f" x="10.8" y="9" width="2.4" height="5" rx=".6"/><rect class="a" x="14.6" y="7" width="2.4" height="7" rx=".6"/></svg>
